<?xml version="1.0" encoding="UTF-8"?>
<!DOCTYPE svg PUBLIC "-//W3C//DTD SVG 1.1//EN" "http://www.w3.org/Graphics/SVG/1.1/DTD/svg11.dtd">
<!-- Creator: CorelDRAW 2018 (64-Bit) -->
<svg xmlns="http://www.w3.org/2000/svg" xml:space="preserve" width="200mm" height="280mm" version="1.1" style="shape-rendering:geometricPrecision; text-rendering:geometricPrecision; image-rendering:optimizeQuality; fill-rule:evenodd; clip-rule:evenodd"
viewBox="0 0 4057.27 5680.17"
 xmlns:xlink="http://www.w3.org/1999/xlink">
 <defs>
  <style type="text/css">
   <![CDATA[
    .fil0 {fill:none}
    .fil4 {fill:white;fill-rule:nonzero}
    .fil2 {fill:url(#id2);fill-rule:nonzero}
    .fil1 {fill:url(#id3);fill-rule:nonzero}
    .fil3 {fill:url(#id4);fill-rule:nonzero}
   ]]>
  </style>
    <mask id="id0">
  <linearGradient id="id1" gradientUnits="userSpaceOnUse" x1="2090.23" y1="1355.08" x2="703.21" y2="2742.1">
   <stop offset="0" style="stop-opacity:0; stop-color:white"/>
   <stop offset="1" style="stop-opacity:0.498039; stop-color:white"/>
  </linearGradient>
     <rect style="fill:url(#id1)" x="328.14" y="787.12" width="2531.4" height="2128.73"/>
    </mask>
  <linearGradient id="id2" gradientUnits="userSpaceOnUse" x1="2090.23" y1="1355.08" x2="703.21" y2="2742.1">
   <stop offset="0" style="stop-opacity:1; stop-color:white"/>
   <stop offset="1" style="stop-opacity:1; stop-color:#4E4D4C"/>
  </linearGradient>
  <linearGradient id="id3" gradientUnits="userSpaceOnUse" x1="916.19" y1="2550.98" x2="2598.45" y2="814.45">
   <stop offset="0" style="stop-opacity:1; stop-color:#2186C8"/>
   <stop offset="1" style="stop-opacity:1; stop-color:#1575BC"/>
  </linearGradient>
  <linearGradient id="id4" gradientUnits="userSpaceOnUse" x1="3770" y1="4682.05" x2="364.22" y2="2164.73">
   <stop offset="0" style="stop-opacity:1; stop-color:#68C2EE"/>
   <stop offset="0.988235" style="stop-opacity:1; stop-color:#3998D4"/>
   <stop offset="1" style="stop-opacity:1; stop-color:#3998D4"/>
  </linearGradient>
 </defs>
 <g id="Layer_x0020_1">
  <metadata id="CorelCorpID_0Corel-Layer"/>
  <g id="_1983435648304">
   <rect class="fil0" x="-0" y="-0" width="4057.27" height="5680.17"/>
   <path class="fil1" d="M2858.76 1851.49c0,587.25 -476.34,1063.59 -1063.6,1063.59l-1466.25 0 0 -1654.98c0,-260.54 211.29,-472.21 472.21,-472.21l994.04 0c293.63,0 559.43,119.18 751.93,311.68 192.49,192.49 311.67,458.29 311.67,751.92z"/>
   <path class="fil2" style="mask:url(#id0)" d="M2858.76 1851.49c0,587.25 -476.34,1063.59 -1063.6,1063.59l-1466.25 0 0 -1654.98c0,-260.54 211.29,-472.21 472.21,-472.21l994.04 0c293.63,0 559.43,119.18 751.93,311.68 192.49,192.49 311.67,458.29 311.67,751.92z"/>
   <path class="fil3" d="M3358.78 2739.13c-228.21,-227.83 -543.64,-369.19 -891.77,-369.19l-1665.87 0 -0.14 -0.15c-260.72,-0.08 -472.03,-211.45 -472.03,-472.17l0 472.32 -0.06 0 0 2050.12c0,260.91 211.29,472.21 472.21,472.21l1665.89 0c696.66,0 1261.35,-564.7 1261.35,-1261.36 0,-348.14 -140.99,-663.19 -369.57,-891.78z"/>
   <path class="fil4" d="M2228.85 2701.31c58.18,-106.35 86.53,-225.3 82.49,-348.55 -11.93,-364.21 -323.37,-660.52 -694.25,-660.52l-597.07 0c-140.21,0 -254.27,114.07 -254.27,254.27l0 1981.88c0,140.2 114.06,254.27 254.27,254.27l894.02 0c428.43,0 780.6,-342.33 785.06,-763.1 3.31,-313.42 -186.34,-597.38 -470.25,-718.26zm-314.81 1347.35l0 0 -894.02 0c-66.31,0 -120.26,-53.95 -120.26,-120.25l0 -1981.88c0,-66.31 53.95,-120.26 120.26,-120.26l597.07 0c299.37,0 550.72,238.16 560.31,530.89 3.41,103.95 -22.15,203.97 -73.71,292.6l-493.77 -240.66c-184.07,-89.71 -406.82,-12.95 -496.55,171.13 -80.48,165.12 -27,361.35 117.73,464.78 -21.81,73.56 -20.25,151.89 5.24,225.89 32.33,93.79 99.24,169.37 188.41,212.83 51.46,25.09 106.78,37.73 162.4,37.73 40.74,0 81.66,-6.79 121.31,-20.46 93.79,-32.32 169.36,-99.23 212.83,-188.41l240.68 -493.82c242.63,96.25 405.9,335.12 403.11,599.38 -3.67,347.67 -295.73,630.51 -651.04,630.51zm-536.84 -1053.95l0 0c-5.79,-16.8 -18.02,-30.62 -34,-38.41 -57,-27.78 -99.75,-76.09 -120.42,-136.03 -20.65,-59.94 -16.73,-124.34 11.04,-181.33 41.08,-84.27 125.75,-133.35 213.75,-133.35 34.85,0 70.24,7.71 103.62,23.98l486.97 237.35 -237.35 486.97c-27.78,57 -76.09,99.75 -136.03,120.42 -59.95,20.64 -124.35,16.72 -181.33,-11.04 -57,-27.78 -99.76,-76.09 -120.42,-136.03 -20.66,-59.95 -16.73,-124.33 11.04,-181.33 7.79,-15.97 8.91,-34.38 3.12,-51.18z"/>
  </g>
 </g>
</svg>
